<svg width="24" height="24" viewBox="0 0 24 24" fill="none" xmlns="http://www.w3.org/2000/svg">
<g id="Close">
<g id="Icon-Close-O">
<path id="Fill-52" d="M12.0377 20.9626C7.08769 20.9626 3.0752 16.9501 3.0752 12.0001C3.0752 7.0501 7.08769 3.0376 12.0377 3.0376C16.9877 3.0376 21.0002 7.0501 21.0002 12.0001C21.0002 16.9126 16.9877 20.9626 12.0377 20.9626ZM12.0377 3.9751C7.65019 3.9751 4.05019 7.57509 4.05019 11.9626C4.05019 16.3501 7.65019 19.9501 12.0377 19.9501C16.4252 19.9501 20.0252 16.3501 20.0252 11.9626C20.0252 7.57509 16.4252 3.9751 12.0377 3.9751Z" fill="#101828"/>
<path id="Fill-53" d="M8.1378 16.5752L7.42529 15.8627L15.9003 7.3877L16.6128 8.10019L8.1378 16.5752Z" fill="#101828"/>
<path id="Fill-54" d="M15.9003 16.5752L7.42529 8.10019L8.1378 7.3877L16.6128 15.8627L15.9003 16.5752Z" fill="#101828"/>
</g>
</g>
</svg>
