<svg width="20" height="20" viewBox="0 0 20 20" fill="none" xmlns="http://www.w3.org/2000/svg">
<path d="M11.8871 13.2812L10.456 11.862C9.7982 11.2097 9.46931 10.8835 9.09066 10.7612C8.75755 10.6536 8.39902 10.6536 8.06591 10.7612C7.68726 10.8835 7.35836 11.2097 6.70057 11.862L3.36816 15.2183M11.8871 13.2812L12.1716 12.9991C12.8432 12.3331 13.179 12.0001 13.5643 11.8785C13.9031 11.7716 14.2672 11.7758 14.6035 11.8905C14.9859 12.0209 15.314 12.3615 15.9701 13.0428L16.6665 13.7499M11.8871 13.2812L15.1832 16.6355M6.00065 3.3335H14.0007C14.9341 3.3335 15.4008 3.3335 15.7573 3.51515C16.0709 3.67494 16.3259 3.92991 16.4857 4.24351C16.6673 4.60003 16.6673 5.06674 16.6673 6.00016V14.0002C16.6673 14.9336 16.6673 15.4003 16.4857 15.7568C16.3259 16.0704 16.0709 16.3254 15.7573 16.4852C15.4008 16.6668 14.9341 16.6668 14.0007 16.6668H6.00065C5.06723 16.6668 4.60052 16.6668 4.244 16.4852C3.9304 16.3254 3.67543 16.0704 3.51564 15.7568C3.33398 15.4003 3.33398 14.9336 3.33398 14.0002V6.00016C3.33398 5.06674 3.33398 4.60003 3.51564 4.24351C3.67543 3.92991 3.9304 3.67494 4.244 3.51515C4.60052 3.3335 5.06723 3.3335 6.00065 3.3335ZM14.1673 7.50016C14.1673 8.42064 13.4211 9.16683 12.5007 9.16683C11.5802 9.16683 10.834 8.42064 10.834 7.50016C10.834 6.57969 11.5802 5.8335 12.5007 5.8335C13.4211 5.8335 14.1673 6.57969 14.1673 7.50016Z" stroke="#98A2B3" stroke-width="2" stroke-linecap="round" stroke-linejoin="round"/>
</svg>
