<svg width="20" height="20" viewBox="0 0 20 20" fill="none" xmlns="http://www.w3.org/2000/svg">
<path d="M5 9.58341H5.83333M5 12.9167H5.83333M14.1667 12.9167H15M14.1667 9.58341H15M9.58333 9.58341H10.4167M8.33333 17.5001V14.1667C8.33333 13.2463 9.07953 12.5001 10 12.5001C10.9205 12.5001 11.6667 13.2463 11.6667 14.1667V17.5001M14.1667 6.25008L15.4801 6.57844C16.2023 6.75899 16.5634 6.84927 16.8323 7.0506C17.0695 7.22823 17.2551 7.46591 17.3699 7.73914C17.5 8.04881 17.5 8.42104 17.5 9.16548V14.8334C17.5 15.7668 17.5 16.2335 17.3183 16.5901C17.1586 16.9037 16.9036 17.1586 16.59 17.3184C16.2335 17.5001 15.7668 17.5001 14.8333 17.5001H5.16667C4.23325 17.5001 3.76654 17.5001 3.41002 17.3184C3.09641 17.1586 2.84144 16.9037 2.68166 16.5901C2.5 16.2335 2.5 15.7668 2.5 14.8334V9.16548C2.5 8.42104 2.5 8.04881 2.63011 7.73914C2.7449 7.46591 2.93047 7.22823 3.1677 7.0506C3.43658 6.84927 3.79768 6.75899 4.5199 6.57844L5.83333 6.25008L8.21609 4.10559C8.84662 3.53812 9.16188 3.25439 9.51842 3.14677C9.83248 3.05199 10.1675 3.05199 10.4816 3.14677C10.8381 3.25439 11.1534 3.53812 11.7839 4.1056L14.1667 6.25008Z" stroke="#98A2B3" stroke-width="2" stroke-linecap="round" stroke-linejoin="round"/>
</svg>
