<svg width="80" height="80" viewBox="0 0 80 80" fill="none" xmlns="http://www.w3.org/2000/svg">
<g id="Success">
<path id="Layer 5" d="M40 10C34.0666 10 28.2664 11.7595 23.3329 15.0559C18.3994 18.3524 14.5543 23.0377 12.2836 28.5195C10.013 34.0013 9.4189 40.0333 10.5765 45.8527C11.734 51.6721 14.5912 57.0176 18.7868 61.2132C22.9824 65.4088 28.3279 68.266 34.1473 69.4236C39.9667 70.5811 45.9987 69.987 51.4805 67.7164C56.9623 65.4458 61.6477 61.6006 64.9441 56.6671C68.2405 51.7336 70 45.9334 70 40C70 32.0435 66.8393 24.4129 61.2132 18.7868C55.5871 13.1607 47.9565 10 40 10ZM54.15 33.975L40 48.1C38.5938 49.5045 36.6875 50.2934 34.7 50.2934C32.7125 50.2934 30.8063 49.5045 29.4 48.1L25.85 44.575C25.6169 44.3419 25.432 44.0652 25.3059 43.7606C25.1797 43.4561 25.1148 43.1297 25.1148 42.8C25.1148 42.4704 25.1797 42.1439 25.3059 41.8394C25.432 41.5348 25.6169 41.2581 25.85 41.025C26.0831 40.7919 26.3598 40.607 26.6644 40.4809C26.9689 40.3547 27.2954 40.2898 27.625 40.2898C27.9547 40.2898 28.2811 40.3547 28.5856 40.4809C28.8902 40.607 29.1669 40.7919 29.4 41.025L32.925 44.575C33.1574 44.8093 33.4339 44.9953 33.7386 45.1222C34.0432 45.2491 34.37 45.3145 34.7 45.3145C35.03 45.3145 35.3568 45.2491 35.6615 45.1222C35.9661 44.9953 36.2426 44.8093 36.475 44.575L50.6 30.425C50.8331 30.1919 51.1098 30.007 51.4144 29.8808C51.7189 29.7547 52.0454 29.6898 52.375 29.6898C52.7047 29.6898 53.0311 29.7547 53.3356 29.8808C53.6402 30.007 53.9169 30.1919 54.15 30.425C54.3831 30.6581 54.568 30.9348 54.6942 31.2394C54.8203 31.5439 54.8852 31.8704 54.8852 32.2C54.8852 32.5296 54.8203 32.8561 54.6942 33.1606C54.568 33.4652 54.3831 33.7419 54.15 33.975Z" fill="#34A853"/>
</g>
</svg>
