<svg width="21" height="20" viewBox="0 0 21 20" fill="none" xmlns="http://www.w3.org/2000/svg">
<g id="key-alt">
<path id="Icon" d="M13 7.5H13.0083M13 12.5C15.7614 12.5 18 10.2614 18 7.5C18 4.73858 15.7614 2.5 13 2.5C10.2386 2.5 8 4.73858 8 7.5C8 7.72807 8.01527 7.95256 8.04484 8.17253C8.09348 8.53432 8.1178 8.71521 8.10143 8.82966C8.08438 8.94888 8.06267 9.01312 8.00391 9.11825C7.9475 9.21917 7.84809 9.31857 7.64928 9.51739L3.39052 13.7761C3.2464 13.9203 3.17433 13.9923 3.1228 14.0764C3.07711 14.151 3.04344 14.2323 3.02303 14.3173C3 14.4132 3 14.5151 3 14.719V16.1667C3 16.6334 3 16.8667 3.09083 17.045C3.17072 17.2018 3.29821 17.3293 3.45501 17.4092C3.63327 17.5 3.86662 17.5 4.33333 17.5H5.78105C5.98487 17.5 6.08679 17.5 6.18269 17.477C6.26772 17.4566 6.34901 17.4229 6.42357 17.3772C6.50767 17.3257 6.57973 17.2536 6.72386 17.1095L10.9826 12.8507C11.1814 12.6519 11.2808 12.5525 11.3818 12.4961C11.4869 12.4373 11.5511 12.4156 11.6703 12.3986C11.7848 12.3822 11.9657 12.4065 12.3275 12.4552C12.5474 12.4847 12.7719 12.5 13 12.5Z" stroke="#98A2B3" stroke-width="2" stroke-linecap="round" stroke-linejoin="round"/>
</g>
</svg>
